<svg width="189" height="77" viewBox="0 0 189 77" fill="none" xmlns="http://www.w3.org/2000/svg">
<rect x="0.288086" y="0.648193" width="188.501" height="75.6122" rx="10.4044" fill="#22251B"/>
<rect x="17.6288" y="19.3795" width="38.1496" height="38.1496" rx="19.0748" fill="#CAFF33"/>
<path fill-rule="evenodd" clip-rule="evenodd" d="M36.7032 32.6019C37.0623 32.6019 37.3535 32.893 37.3535 33.2521V37.8041H41.9054C42.2646 37.8041 42.5557 38.0952 42.5557 38.4544C42.5557 38.8135 42.2646 39.1046 41.9054 39.1046H37.3535V43.6566C37.3535 44.0157 37.0623 44.3069 36.7032 44.3069C36.3441 44.3069 36.0529 44.0157 36.0529 43.6566V39.1046H31.501C31.1418 39.1046 30.8507 38.8135 30.8507 38.4544C30.8507 38.0952 31.1418 37.8041 31.501 37.8041L36.0529 37.8041V33.2521C36.0529 32.893 36.3441 32.6019 36.7032 32.6019Z" fill="#1A1A1A"/>
<path d="M65.2291 30.4457V28.885H73.9168V30.4457H65.2291ZM68.6452 33.7924V25.4169H70.466V33.7924H68.6452ZM84.9991 34.6942C84.0049 34.6942 83.1263 34.4976 82.3633 34.1046C81.6119 33.7115 80.9645 33.1219 80.4212 32.3358L81.7044 30.8619C82.2708 31.6711 82.8142 32.2318 83.3344 32.5439C83.8546 32.856 84.4731 33.0121 85.1899 33.0121C85.6292 33.0121 86.028 32.9427 86.3864 32.804C86.7447 32.6653 87.028 32.4745 87.2361 32.2318C87.4442 31.989 87.5482 31.7116 87.5482 31.3994C87.5482 31.1913 87.5135 30.9948 87.4442 30.8098C87.3748 30.6249 87.265 30.4572 87.1147 30.307C86.976 30.1567 86.791 30.0179 86.5598 29.8908C86.3401 29.7636 86.08 29.6538 85.7794 29.5613C85.4789 29.4573 85.1321 29.3706 84.739 29.3012C83.9066 29.1393 83.213 28.8966 82.6581 28.5729C82.1148 28.2492 81.7044 27.8388 81.4269 27.3417C81.161 26.8446 81.0281 26.2666 81.0281 25.6076C81.0281 25.1221 81.1321 24.6712 81.3402 24.255C81.5599 23.8389 81.8547 23.4805 82.2246 23.1799C82.6061 22.8678 83.0512 22.6308 83.5598 22.469C84.0685 22.2955 84.6176 22.2088 85.2072 22.2088C86.1436 22.2088 86.9586 22.3938 87.6522 22.7637C88.3574 23.1221 88.9123 23.6481 89.3169 24.3417L87.9991 25.6423C87.6522 25.0758 87.2361 24.6423 86.7505 24.3417C86.2765 24.0412 85.7448 23.8909 85.1552 23.8909C84.7043 23.8909 84.3113 23.9603 83.976 24.099C83.6408 24.2377 83.3749 24.4342 83.1783 24.6886C82.9934 24.9313 82.9009 25.2203 82.9009 25.5556C82.9009 25.7984 82.9471 26.0238 83.0396 26.2319C83.1321 26.4284 83.2708 26.6076 83.4558 26.7694C83.6523 26.9197 83.9124 27.0585 84.2361 27.1856C84.5598 27.3012 84.9471 27.4053 85.3979 27.4978C86.0338 27.6365 86.6002 27.8157 87.0973 28.0353C87.5944 28.2434 88.0164 28.492 88.3632 28.781C88.71 29.07 88.9701 29.3937 89.1435 29.7521C89.3285 30.1104 89.421 30.4977 89.421 30.9139C89.421 31.6884 89.2418 32.3589 88.8834 32.9254C88.5251 33.4919 88.0164 33.9312 87.3574 34.2433C86.6985 34.5439 85.9124 34.6942 84.9991 34.6942ZM83.9587 36.0988V28.2261L85.6407 28.7983V36.0988H83.9587ZM86.3343 28.7983L84.6523 28.2261V20.9603H86.3343V28.7983ZM94.8317 34.6421C94.034 34.6421 93.3115 34.4629 92.6641 34.1046C92.0167 33.7346 91.4792 33.2086 91.0514 32.5266L92.0919 31.3647C92.6352 31.9659 93.1092 32.3763 93.5138 32.5959C93.9184 32.8156 94.3577 32.9254 94.8317 32.9254C95.3057 32.9254 95.7334 32.8214 96.1149 32.6133C96.4964 32.4052 96.797 32.122 97.0166 31.7636C97.2478 31.4052 97.3634 31.0064 97.3634 30.5671C97.3634 30.1046 97.2536 29.6943 97.034 29.3359C96.8259 28.9659 96.5427 28.6769 96.1843 28.4688C95.8259 28.2492 95.4213 28.1394 94.9704 28.1394C94.7508 28.1394 94.5427 28.1567 94.3462 28.1914C94.1496 28.2145 93.9126 28.2781 93.6352 28.3821C93.3577 28.4862 92.9936 28.648 92.5427 28.8677L91.5543 27.5324L92.2653 22.3822H98.8201V24.1163H93.4444L93.8086 23.7868L93.2364 27.6365L92.8028 27.1336C92.9184 27.018 93.115 26.9082 93.3924 26.8041C93.6699 26.6885 93.9762 26.596 94.3115 26.5267C94.6583 26.4458 94.9878 26.4053 95.2999 26.4053C96.0398 26.4053 96.6987 26.5787 97.2767 26.9255C97.8663 27.2608 98.3287 27.729 98.664 28.3301C99.0108 28.9313 99.1842 29.6191 99.1842 30.3937C99.1842 31.1913 98.9935 31.9139 98.612 32.5613C98.2305 33.1971 97.7103 33.7057 97.0513 34.0872C96.3924 34.4572 95.6525 34.6421 94.8317 34.6421ZM105.485 34.6942C104.56 34.6942 103.763 34.4398 103.092 33.9312C102.433 33.4225 101.925 32.7058 101.566 31.7809C101.208 30.8445 101.029 29.7347 101.029 28.4515C101.029 27.1683 101.208 26.0643 101.566 25.1394C101.925 24.203 102.433 23.4805 103.092 22.9718C103.763 22.4632 104.56 22.2088 105.485 22.2088C106.41 22.2088 107.208 22.4632 107.878 22.9718C108.549 23.4805 109.063 24.203 109.421 25.1394C109.78 26.0643 109.959 27.1683 109.959 28.4515C109.959 29.7347 109.78 30.8445 109.421 31.7809C109.063 32.7058 108.549 33.4225 107.878 33.9312C107.208 34.4398 106.41 34.6942 105.485 34.6942ZM105.485 32.9948C106.329 32.9948 106.982 32.6017 107.445 31.8156C107.907 31.0179 108.138 29.8966 108.138 28.4515C108.138 27.0064 107.907 25.8909 107.445 25.1047C106.982 24.3071 106.329 23.9082 105.485 23.9082C104.641 23.9082 103.988 24.3071 103.526 25.1047C103.063 25.8909 102.832 27.0064 102.832 28.4515C102.832 29.8966 103.063 31.0179 103.526 31.8156C103.988 32.6017 104.641 32.9948 105.485 32.9948ZM116.018 34.6942C115.093 34.6942 114.296 34.4398 113.625 33.9312C112.966 33.4225 112.458 32.7058 112.099 31.7809C111.741 30.8445 111.562 29.7347 111.562 28.4515C111.562 27.1683 111.741 26.0643 112.099 25.1394C112.458 24.203 112.966 23.4805 113.625 22.9718C114.296 22.4632 115.093 22.2088 116.018 22.2088C116.943 22.2088 117.741 22.4632 118.411 22.9718C119.082 23.4805 119.596 24.203 119.955 25.1394C120.313 26.0643 120.492 27.1683 120.492 28.4515C120.492 29.7347 120.313 30.8445 119.955 31.7809C119.596 32.7058 119.082 33.4225 118.411 33.9312C117.741 34.4398 116.943 34.6942 116.018 34.6942ZM116.018 32.9948C116.862 32.9948 117.515 32.6017 117.978 31.8156C118.44 31.0179 118.671 29.8966 118.671 28.4515C118.671 27.0064 118.44 25.8909 117.978 25.1047C117.515 24.3071 116.862 23.9082 116.018 23.9082C115.174 23.9082 114.521 24.3071 114.059 25.1047C113.596 25.8909 113.365 27.0064 113.365 28.4515C113.365 29.8966 113.596 31.0179 114.059 31.8156C114.521 32.6017 115.174 32.9948 116.018 32.9948ZM126.551 34.6942C125.627 34.6942 124.829 34.4398 124.158 33.9312C123.499 33.4225 122.991 32.7058 122.632 31.7809C122.274 30.8445 122.095 29.7347 122.095 28.4515C122.095 27.1683 122.274 26.0643 122.632 25.1394C122.991 24.203 123.499 23.4805 124.158 22.9718C124.829 22.4632 125.627 22.2088 126.551 22.2088C127.476 22.2088 128.274 22.4632 128.944 22.9718C129.615 23.4805 130.129 24.203 130.488 25.1394C130.846 26.0643 131.025 27.1683 131.025 28.4515C131.025 29.7347 130.846 30.8445 130.488 31.7809C130.129 32.7058 129.615 33.4225 128.944 33.9312C128.274 34.4398 127.476 34.6942 126.551 34.6942ZM126.551 32.9948C127.395 32.9948 128.048 32.6017 128.511 31.8156C128.973 31.0179 129.205 29.8966 129.205 28.4515C129.205 27.0064 128.973 25.8909 128.511 25.1047C128.048 24.3071 127.395 23.9082 126.551 23.9082C125.707 23.9082 125.054 24.3071 124.592 25.1047C124.129 25.8909 123.898 27.0064 123.898 28.4515C123.898 29.8966 124.129 31.0179 124.592 31.8156C125.054 32.6017 125.707 32.9948 126.551 32.9948ZM133.356 37.6247L132.697 36.8271C133.102 36.5959 133.431 36.33 133.686 36.0294C133.94 35.7288 134.067 35.4687 134.067 35.2491C134.067 35.1335 134.038 35.0179 133.981 34.9022C133.923 34.7982 133.801 34.6479 133.616 34.4514C133.385 34.2317 133.235 34.0468 133.166 33.8965C133.096 33.7462 133.061 33.5844 133.061 33.4109C133.061 33.1335 133.16 32.9138 133.356 32.752C133.553 32.5786 133.807 32.4919 134.119 32.4919C134.408 32.4919 134.668 32.5786 134.9 32.752C135.142 32.9138 135.327 33.1451 135.455 33.4456C135.593 33.7346 135.663 34.0699 135.663 34.4514C135.663 34.7982 135.605 35.1335 135.489 35.4572C135.374 35.7808 135.212 36.0814 135.004 36.3589C134.796 36.6363 134.553 36.8849 134.275 37.1045C133.998 37.3242 133.692 37.4976 133.356 37.6247ZM141.708 34.6942C140.783 34.6942 139.985 34.4398 139.315 33.9312C138.656 33.4225 138.147 32.7058 137.789 31.7809C137.43 30.8445 137.251 29.7347 137.251 28.4515C137.251 27.1683 137.43 26.0643 137.789 25.1394C138.147 24.203 138.656 23.4805 139.315 22.9718C139.985 22.4632 140.783 22.2088 141.708 22.2088C142.632 22.2088 143.43 22.4632 144.101 22.9718C144.771 23.4805 145.286 24.203 145.644 25.1394C146.002 26.0643 146.182 27.1683 146.182 28.4515C146.182 29.7347 146.002 30.8445 145.644 31.7809C145.286 32.7058 144.771 33.4225 144.101 33.9312C143.43 34.4398 142.632 34.6942 141.708 34.6942ZM141.708 32.9948C142.552 32.9948 143.205 32.6017 143.667 31.8156C144.13 31.0179 144.361 29.8966 144.361 28.4515C144.361 27.0064 144.13 25.8909 143.667 25.1047C143.205 24.3071 142.552 23.9082 141.708 23.9082C140.864 23.9082 140.211 24.3071 139.748 25.1047C139.286 25.8909 139.054 27.0064 139.054 28.4515C139.054 29.8966 139.286 31.0179 139.748 31.8156C140.211 32.6017 140.864 32.9948 141.708 32.9948ZM152.241 34.6942C151.316 34.6942 150.518 34.4398 149.848 33.9312C149.189 33.4225 148.68 32.7058 148.322 31.7809C147.963 30.8445 147.784 29.7347 147.784 28.4515C147.784 27.1683 147.963 26.0643 148.322 25.1394C148.68 24.203 149.189 23.4805 149.848 22.9718C150.518 22.4632 151.316 22.2088 152.241 22.2088C153.166 22.2088 153.963 22.4632 154.634 22.9718C155.304 23.4805 155.819 24.203 156.177 25.1394C156.535 26.0643 156.715 27.1683 156.715 28.4515C156.715 29.7347 156.535 30.8445 156.177 31.7809C155.819 32.7058 155.304 33.4225 154.634 33.9312C153.963 34.4398 153.166 34.6942 152.241 34.6942ZM152.241 32.9948C153.085 32.9948 153.738 32.6017 154.2 31.8156C154.663 31.0179 154.894 29.8966 154.894 28.4515C154.894 27.0064 154.663 25.8909 154.2 25.1047C153.738 24.3071 153.085 23.9082 152.241 23.9082C151.397 23.9082 150.744 24.3071 150.281 25.1047C149.819 25.8909 149.588 27.0064 149.588 28.4515C149.588 29.8966 149.819 31.0179 150.281 31.8156C150.744 32.6017 151.397 32.9948 152.241 32.9948Z" fill="white"/>
<path d="M65.8776 57.3878V47.677H66.9319L70.6636 53.7393L70.1642 53.7255L73.9376 47.677H74.9225V57.3878H73.8405V52.9486C73.8405 52.1162 73.8543 51.3671 73.8821 50.7012C73.9098 50.0354 73.9607 49.3741 74.0347 48.7175L74.2289 49.1059L70.7469 54.5717H69.9978L66.6129 49.1753L66.7655 48.7175C66.8394 49.3371 66.8903 49.9752 66.918 50.6319C66.9458 51.2793 66.9597 52.0515 66.9597 52.9486V57.3878H65.8776ZM80.5742 57.5265C79.8528 57.5265 79.2101 57.3647 78.6459 57.041C78.091 56.7173 77.6517 56.2688 77.328 55.6954C77.0136 55.122 76.8563 54.47 76.8563 53.7393C76.8563 53.018 77.0136 52.3752 77.328 51.811C77.6517 51.2469 78.091 50.803 78.6459 50.4793C79.2101 50.1556 79.8528 49.9937 80.5742 49.9937C81.2863 49.9937 81.9198 50.1556 82.4747 50.4793C83.0389 50.803 83.4782 51.2469 83.7926 51.811C84.1163 52.3752 84.2782 53.018 84.2782 53.7393C84.2782 54.47 84.1163 55.122 83.7926 55.6954C83.4782 56.2688 83.0389 56.7173 82.4747 57.041C81.9198 57.3647 81.2863 57.5265 80.5742 57.5265ZM80.5742 56.5416C81.0829 56.5416 81.536 56.4214 81.9337 56.1809C82.3314 55.9312 82.6412 55.5983 82.8632 55.1821C83.0851 54.7567 83.1961 54.2757 83.1961 53.7393C83.1961 53.2029 83.0851 52.7266 82.8632 52.3105C82.6412 51.8943 82.3314 51.5706 81.9337 51.3394C81.536 51.0989 81.0829 50.9787 80.5742 50.9787C80.0655 50.9787 79.6077 51.0989 79.2008 51.3394C78.8031 51.5706 78.4887 51.8989 78.2575 52.3243C78.0355 52.7405 77.9292 53.2122 77.9384 53.7393C77.9292 54.2757 78.0355 54.7567 78.2575 55.1821C78.4887 55.5983 78.8031 55.9312 79.2008 56.1809C79.6077 56.4214 80.0655 56.5416 80.5742 56.5416ZM85.7961 57.3878V50.1463H86.8227L86.8643 51.6584L86.6978 51.7278C86.7903 51.4134 86.9707 51.1267 87.2389 50.8677C87.5071 50.6088 87.8262 50.4007 88.1961 50.2434C88.5753 50.077 88.9637 49.9937 89.3614 49.9937C89.8978 49.9937 90.3463 50.1001 90.707 50.3128C91.0677 50.5255 91.3405 50.8538 91.5255 51.2978C91.7105 51.7417 91.803 52.3058 91.803 52.9902V57.3878H90.7486V53.0457C90.7486 52.5648 90.6839 52.1717 90.5544 51.8665C90.4342 51.5521 90.2446 51.3209 89.9857 51.1729C89.7267 51.0249 89.4076 50.9556 89.0284 50.9648C88.714 50.9648 88.4227 51.0203 88.1545 51.1313C87.8863 51.233 87.6551 51.3764 87.4608 51.5613C87.2666 51.7463 87.114 51.959 87.003 52.1995C86.8921 52.4399 86.8366 52.6989 86.8366 52.9763V57.3878H86.3233C86.2586 57.3878 86.1846 57.3878 86.1013 57.3878C86.0181 57.3878 85.9164 57.3878 85.7961 57.3878ZM94.7879 57.3878V48.2458H95.8284V57.3878H94.7879ZM93.151 51.1452V50.1463H97.6596V51.1452H93.151ZM98.9371 57.3878V47.1221H99.9776V51.7278L99.7695 51.9359C99.8712 51.5567 100.061 51.2238 100.338 50.9371C100.616 50.6411 100.939 50.4099 101.309 50.2434C101.689 50.077 102.072 49.9937 102.461 49.9937C103.016 49.9937 103.478 50.1001 103.848 50.3128C104.218 50.5255 104.491 50.8538 104.667 51.2978C104.851 51.7417 104.944 52.3058 104.944 52.9902V57.3878H103.89V53.0457C103.89 52.5648 103.825 52.1717 103.695 51.8665C103.575 51.5521 103.386 51.3209 103.127 51.1729C102.868 51.0249 102.544 50.9556 102.156 50.9648C101.85 50.9648 101.564 51.0203 101.295 51.1313C101.027 51.233 100.796 51.3764 100.602 51.5613C100.408 51.7463 100.255 51.959 100.144 52.1995C100.033 52.4399 99.9776 52.6989 99.9776 52.9763V57.3878H99.4643C99.3996 57.3878 99.3256 57.3878 99.2423 57.3878C99.1591 57.3878 99.0574 57.3878 98.9371 57.3878ZM106.958 57.3878V47.1221H107.998V57.3878H106.958ZM111.064 60.5785L112.465 57.1659L112.562 58.1508L108.927 50.1463H110.106L112.59 55.6954C112.664 55.8433 112.738 56.0191 112.812 56.2225C112.886 56.4167 112.955 56.611 113.02 56.8052L112.631 56.7636C112.696 56.6063 112.756 56.4445 112.812 56.278C112.876 56.1115 112.936 55.9497 112.992 55.7925L115.17 50.1463H116.363L113.436 57.3878L112.187 60.5785H111.064ZM121.303 57.3878V56.3612H122.871V48.7036H121.303V47.677H125.52V48.7036H123.953V56.3612H125.52V57.3878H121.303ZM127.509 57.3878V50.1463H128.535L128.577 51.6584L128.41 51.7278C128.503 51.4134 128.683 51.1267 128.951 50.8677C129.22 50.6088 129.539 50.4007 129.909 50.2434C130.288 50.077 130.676 49.9937 131.074 49.9937C131.61 49.9937 132.059 50.1001 132.42 50.3128C132.78 50.5255 133.053 50.8538 133.238 51.2978C133.423 51.7417 133.516 52.3058 133.516 52.9902V57.3878H132.461V53.0457C132.461 52.5648 132.396 52.1717 132.267 51.8665C132.147 51.5521 131.957 51.3209 131.698 51.1729C131.439 51.0249 131.12 50.9556 130.741 50.9648C130.427 50.9648 130.135 51.0203 129.867 51.1313C129.599 51.233 129.368 51.3764 129.173 51.5613C128.979 51.7463 128.827 51.959 128.716 52.1995C128.605 52.4399 128.549 52.6989 128.549 52.9763V57.3878H128.036C127.971 57.3878 127.897 57.3878 127.814 57.3878C127.731 57.3878 127.629 57.3878 127.509 57.3878ZM138.554 57.5265C137.869 57.5265 137.259 57.3647 136.722 57.041C136.186 56.7081 135.761 56.2595 135.446 55.6954C135.141 55.122 134.988 54.4746 134.988 53.7532C134.988 53.0318 135.141 52.3891 135.446 51.8249C135.761 51.2515 136.186 50.803 136.722 50.4793C137.259 50.1556 137.874 49.9937 138.568 49.9937C139.187 49.9937 139.751 50.1186 140.26 50.3683C140.769 50.6088 141.176 50.9463 141.481 51.381L140.87 52.1301C140.695 51.8989 140.482 51.6954 140.232 51.5197C139.992 51.344 139.728 51.2099 139.441 51.1174C139.164 51.0157 138.887 50.9648 138.609 50.9648C138.119 50.9648 137.68 51.0897 137.291 51.3394C136.903 51.5798 136.593 51.9081 136.362 52.3243C136.14 52.7405 136.029 53.2168 136.029 53.7532C136.029 54.2896 136.14 54.7705 136.362 55.196C136.593 55.6121 136.903 55.9404 137.291 56.1809C137.68 56.4214 138.114 56.5416 138.595 56.5416C138.873 56.5416 139.146 56.5 139.414 56.4167C139.682 56.3243 139.936 56.1948 140.177 56.0283C140.417 55.8618 140.639 55.6537 140.843 55.404L141.453 56.1532C141.139 56.5693 140.718 56.9023 140.191 57.152C139.663 57.4017 139.118 57.5265 138.554 57.5265ZM146.008 57.5265C145.287 57.5265 144.644 57.3647 144.08 57.041C143.525 56.7173 143.086 56.2688 142.762 55.6954C142.448 55.122 142.29 54.47 142.29 53.7393C142.29 53.018 142.448 52.3752 142.762 51.811C143.086 51.2469 143.525 50.803 144.08 50.4793C144.644 50.1556 145.287 49.9937 146.008 49.9937C146.72 49.9937 147.354 50.1556 147.909 50.4793C148.473 50.803 148.912 51.2469 149.227 51.811C149.55 52.3752 149.712 53.018 149.712 53.7393C149.712 54.47 149.55 55.122 149.227 55.6954C148.912 56.2688 148.473 56.7173 147.909 57.041C147.354 57.3647 146.72 57.5265 146.008 57.5265ZM146.008 56.5416C146.517 56.5416 146.97 56.4214 147.368 56.1809C147.766 55.9312 148.075 55.5983 148.297 55.1821C148.519 54.7567 148.63 54.2757 148.63 53.7393C148.63 53.2029 148.519 52.7266 148.297 52.3105C148.075 51.8943 147.766 51.5706 147.368 51.3394C146.97 51.0989 146.517 50.9787 146.008 50.9787C145.5 50.9787 145.042 51.0989 144.635 51.3394C144.237 51.5706 143.923 51.8989 143.692 52.3243C143.47 52.7405 143.363 53.2122 143.373 53.7393C143.363 54.2757 143.47 54.7567 143.692 55.1821C143.923 55.5983 144.237 55.9312 144.635 56.1809C145.042 56.4214 145.5 56.5416 146.008 56.5416ZM151.216 57.3878V50.1463H152.257L152.285 51.7972L152.076 51.8665C152.15 51.5891 152.271 51.3394 152.437 51.1174C152.613 50.8862 152.821 50.6874 153.061 50.5209C153.302 50.3544 153.565 50.2296 153.852 50.1463C154.139 50.0538 154.439 50.0076 154.754 50.0076C155.133 50.0076 155.471 50.0723 155.767 50.2018C156.072 50.3221 156.326 50.5348 156.53 50.84C156.742 51.1359 156.904 51.529 157.015 52.0191L156.765 51.8943L156.863 51.6584C156.955 51.4457 157.089 51.2423 157.265 51.0481C157.45 50.8446 157.658 50.6642 157.889 50.507C158.13 50.3498 158.389 50.2296 158.666 50.1463C158.953 50.0538 159.244 50.0076 159.54 50.0076C160.049 50.0076 160.479 50.1186 160.83 50.3405C161.182 50.5533 161.445 50.8816 161.621 51.3255C161.806 51.7694 161.898 52.3336 161.898 53.018V57.3878H160.83V53.0734C160.83 52.5925 160.77 52.1995 160.65 51.8943C160.53 51.5891 160.349 51.3625 160.109 51.2145C159.877 51.0573 159.582 50.9787 159.221 50.9787C158.906 50.9787 158.615 51.0342 158.347 51.1452C158.088 51.2469 157.861 51.3949 157.667 51.5891C157.482 51.774 157.334 51.9868 157.223 52.2272C157.121 52.4677 157.071 52.7266 157.071 53.0041V57.3878H156.016V53.0596C156.016 52.5972 155.952 52.2133 155.822 51.9081C155.702 51.603 155.522 51.3717 155.281 51.2145C155.041 51.0573 154.745 50.9787 154.393 50.9787C154.088 50.9787 153.806 51.0342 153.547 51.1452C153.288 51.2469 153.061 51.3902 152.867 51.5752C152.682 51.7602 152.534 51.9729 152.423 52.2133C152.322 52.4538 152.271 52.7128 152.271 52.9902V57.3878H151.216ZM167.061 57.5265C166.339 57.5265 165.697 57.3693 165.132 57.0549C164.578 56.7404 164.143 56.3011 163.828 55.737C163.514 55.1728 163.357 54.5254 163.357 53.7948C163.357 53.2307 163.445 52.722 163.62 52.2688C163.796 51.8064 164.041 51.4041 164.356 51.0619C164.679 50.7197 165.063 50.4562 165.507 50.2712C165.951 50.077 166.432 49.9799 166.95 49.9799C167.44 49.9799 167.884 50.0677 168.281 50.2434C168.688 50.4192 169.035 50.6642 169.322 50.9787C169.618 51.2839 169.84 51.6492 169.988 52.0746C170.136 52.5 170.201 52.9671 170.182 53.4758L170.168 53.9613H164.134L163.981 53.0873H169.377L169.128 53.3232V52.9902C169.109 52.6573 169.012 52.3382 168.836 52.033C168.661 51.7186 168.411 51.4642 168.087 51.27C167.773 51.0758 167.394 50.9787 166.95 50.9787C166.432 50.9787 165.983 51.085 165.604 51.2978C165.225 51.5012 164.934 51.8064 164.73 52.2133C164.527 52.6203 164.425 53.1243 164.425 53.7255C164.425 54.2989 164.536 54.7983 164.758 55.2237C164.98 55.6399 165.294 55.9636 165.701 56.1948C166.117 56.426 166.617 56.5416 167.199 56.5416C167.542 56.5416 167.879 56.4861 168.212 56.3751C168.554 56.2549 168.929 56.0237 169.336 55.6815L169.877 56.4306C169.664 56.6433 169.41 56.8329 169.114 56.9994C168.818 57.1566 168.494 57.2861 168.143 57.3878C167.791 57.4803 167.431 57.5265 167.061 57.5265Z" fill="#E4E4E7"/>
</svg>
