<svg width="372" height="70" viewBox="0 0 372 70" fill="none" xmlns="http://www.w3.org/2000/svg">
<rect x="0.797852" y="0.00561523" width="370.224" height="69.3629" rx="34.6814" fill="#22251B"/>
<path d="M26.5072 40.3431C25.9141 40.3431 25.3627 40.265 24.8529 40.109C24.3535 39.9529 23.8957 39.7188 23.4795 39.4067C23.0737 39.0841 22.7096 38.6888 22.387 38.2206L23.5419 36.894C24.0517 37.6223 24.5407 38.1269 25.0089 38.4079C25.4771 38.6888 26.0338 38.8292 26.6789 38.8292C27.0742 38.8292 27.4332 38.7668 27.7557 38.642C28.0782 38.5171 28.3332 38.3454 28.5204 38.1269C28.7077 37.9084 28.8014 37.6587 28.8014 37.3778C28.8014 37.1905 28.7701 37.0137 28.7077 36.8472C28.6453 36.6807 28.5464 36.5299 28.4112 36.3946C28.2863 36.2593 28.1199 36.1345 27.9118 36.02C27.7141 35.9056 27.48 35.8067 27.2095 35.7235C26.939 35.6299 26.6268 35.5518 26.2731 35.4894C25.7112 35.375 25.2222 35.2241 24.8061 35.0368C24.3899 34.8495 24.0413 34.6154 23.7604 34.3345C23.4795 34.0536 23.2714 33.7363 23.1361 33.3825C23.0009 33.0184 22.9333 32.6126 22.9333 32.1652C22.9333 31.7282 23.0269 31.3224 23.2142 30.9479C23.4119 30.5733 23.6772 30.2508 24.0101 29.9803C24.3535 29.6993 24.754 29.4861 25.2118 29.3404C25.6696 29.1843 26.1638 29.1063 26.6945 29.1063C27.2563 29.1063 27.7713 29.1791 28.2395 29.3248C28.7077 29.4704 29.1239 29.6889 29.488 29.9803C29.8522 30.2612 30.1539 30.6097 30.3932 31.0259L29.2071 32.1964C28.999 31.8531 28.7649 31.5669 28.5048 31.338C28.2447 31.0987 27.9586 30.9219 27.6465 30.8074C27.3343 30.6826 27.0014 30.6201 26.6476 30.6201C26.2419 30.6201 25.8881 30.6826 25.5864 30.8074C25.2847 30.9323 25.0454 31.1091 24.8685 31.338C24.702 31.5565 24.6188 31.8166 24.6188 32.1184C24.6188 32.3369 24.6604 32.5398 24.7436 32.727C24.8269 32.9039 24.9517 33.0652 25.1182 33.2108C25.2951 33.3461 25.5292 33.471 25.8205 33.5854C26.1118 33.6894 26.4604 33.7831 26.8661 33.8663C27.4384 33.9912 27.9482 34.1524 28.3956 34.3501C28.843 34.5374 29.2227 34.7611 29.5349 35.0212C29.847 35.2813 30.0811 35.5726 30.2372 35.8952C30.4036 36.2177 30.4869 36.5663 30.4869 36.9408C30.4869 37.6379 30.3256 38.2414 30.0031 38.7512C29.6805 39.261 29.2227 39.6564 28.6297 39.9373C28.0366 40.2078 27.3291 40.3431 26.5072 40.3431ZM35.3409 40.3431C34.7583 40.3431 34.2484 40.2078 33.8115 39.9373C33.3849 39.6668 33.0519 39.287 32.8126 38.798C32.5837 38.309 32.4693 37.7264 32.4693 37.0501V31.9935H34.0768V36.6131C34.0768 37.0917 34.1496 37.5079 34.2953 37.8616C34.4513 38.205 34.6698 38.4703 34.9507 38.6576C35.2421 38.8448 35.5906 38.9385 35.9964 38.9385C36.2981 38.9385 36.5738 38.8917 36.8235 38.798C37.0732 38.694 37.2865 38.5535 37.4634 38.3766C37.6507 38.1998 37.7964 37.9865 37.9004 37.7368C38.0044 37.4871 38.0565 37.2165 38.0565 36.9252V31.9935H39.6639V40.187H38.0565V38.4703L38.3374 38.283C38.2125 38.668 37.9992 39.0165 37.6975 39.3286C37.4062 39.6408 37.0576 39.8905 36.6519 40.0778C36.2461 40.2546 35.8091 40.3431 35.3409 40.3431ZM41.9186 43.6205V31.9935H43.5417V33.8663L43.292 33.7259C43.3544 33.4137 43.5313 33.1172 43.8226 32.8363C44.114 32.545 44.4677 32.3109 44.8839 32.134C45.3105 31.9467 45.7475 31.8531 46.1948 31.8531C46.9336 31.8531 47.589 32.0351 48.1613 32.3993C48.7335 32.7634 49.1861 33.2629 49.5191 33.8975C49.852 34.5322 50.0185 35.2605 50.0185 36.0825C50.0185 36.894 49.852 37.6223 49.5191 38.2674C49.1965 38.9021 48.7491 39.4067 48.1769 39.7812C47.6046 40.1454 46.9596 40.3275 46.2417 40.3275C45.7631 40.3275 45.3001 40.2338 44.8527 40.0466C44.4053 39.8489 44.0255 39.5992 43.7134 39.2974C43.4013 38.9957 43.2088 38.6836 43.1359 38.361L43.5417 38.1425V43.6205H41.9186ZM45.9763 38.8448C46.455 38.8448 46.8815 38.7252 47.2561 38.4859C47.6307 38.2466 47.9272 37.9188 48.1457 37.5027C48.3642 37.0865 48.4734 36.6131 48.4734 36.0825C48.4734 35.5518 48.3642 35.0836 48.1457 34.6779C47.9376 34.2617 47.6463 33.9339 47.2717 33.6946C46.8971 33.4553 46.4654 33.3357 45.9763 33.3357C45.4873 33.3357 45.0556 33.4553 44.681 33.6946C44.3064 33.9235 44.0099 34.2461 43.7914 34.6623C43.5729 35.0784 43.4637 35.5518 43.4637 36.0825C43.4637 36.6131 43.5729 37.0865 43.7914 37.5027C44.0099 37.9188 44.3064 38.2466 44.681 38.4859C45.0556 38.7252 45.4873 38.8448 45.9763 38.8448ZM51.7642 43.6205V31.9935H53.3873V33.8663L53.1376 33.7259C53.2 33.4137 53.3769 33.1172 53.6682 32.8363C53.9596 32.545 54.3133 32.3109 54.7295 32.134C55.1561 31.9467 55.5931 31.8531 56.0404 31.8531C56.7792 31.8531 57.4346 32.0351 58.0069 32.3993C58.5791 32.7634 59.0317 33.2629 59.3647 33.8975C59.6976 34.5322 59.8641 35.2605 59.8641 36.0825C59.8641 36.894 59.6976 37.6223 59.3647 38.2674C59.0421 38.9021 58.5947 39.4067 58.0225 39.7812C57.4502 40.1454 56.8052 40.3275 56.0873 40.3275C55.6087 40.3275 55.1457 40.2338 54.6983 40.0466C54.2509 39.8489 53.8711 39.5992 53.559 39.2974C53.2469 38.9957 53.0544 38.6836 52.9815 38.361L53.3873 38.1425V43.6205H51.7642ZM55.8219 38.8448C56.3006 38.8448 56.7271 38.7252 57.1017 38.4859C57.4763 38.2466 57.7728 37.9188 57.9913 37.5027C58.2098 37.0865 58.319 36.6131 58.319 36.0825C58.319 35.5518 58.2098 35.0836 57.9913 34.6779C57.7832 34.2617 57.4919 33.9339 57.1173 33.6946C56.7427 33.4553 56.311 33.3357 55.8219 33.3357C55.3329 33.3357 54.9012 33.4553 54.5266 33.6946C54.152 33.9235 53.8555 34.2461 53.637 34.6623C53.4185 35.0784 53.3093 35.5518 53.3093 36.0825C53.3093 36.6131 53.4185 37.0865 53.637 37.5027C53.8555 37.9188 54.152 38.2466 54.5266 38.4859C54.9012 38.7252 55.3329 38.8448 55.8219 38.8448ZM65.293 40.3431C64.4918 40.3431 63.7739 40.161 63.1393 39.7968C62.515 39.4223 62.0208 38.9177 61.6566 38.283C61.2925 37.6379 61.1104 36.9044 61.1104 36.0825C61.1104 35.2605 61.2925 34.5322 61.6566 33.8975C62.0208 33.2525 62.515 32.7478 63.1393 32.3837C63.7739 32.0091 64.4918 31.8218 65.293 31.8218C66.0837 31.8218 66.7912 32.0091 67.4155 32.3837C68.0502 32.7478 68.5496 33.2525 68.9137 33.8975C69.2779 34.5322 69.46 35.2605 69.46 36.0825C69.46 36.9044 69.2779 37.6379 68.9137 38.283C68.5496 38.9177 68.0502 39.4223 67.4155 39.7968C66.7912 40.161 66.0837 40.3431 65.293 40.3431ZM65.293 38.8761C65.782 38.8761 66.219 38.7564 66.6039 38.5171C66.9889 38.2674 67.2906 37.9345 67.5091 37.5183C67.7276 37.0917 67.8317 36.6131 67.8213 36.0825C67.8317 35.5414 67.7276 35.0628 67.5091 34.6467C67.2906 34.2201 66.9889 33.8871 66.6039 33.6478C66.219 33.4085 65.782 33.2889 65.293 33.2889C64.804 33.2889 64.3618 33.4137 63.9664 33.6634C63.5815 33.9027 63.2797 34.2357 63.0612 34.6623C62.8427 35.0784 62.7387 35.5518 62.7491 36.0825C62.7387 36.6131 62.8427 37.0917 63.0612 37.5183C63.2797 37.9345 63.5815 38.2674 63.9664 38.5171C64.3618 38.7564 64.804 38.8761 65.293 38.8761ZM71.2116 40.187V31.9935H72.8347V34.5686L72.6786 33.9444C72.793 33.549 72.9855 33.19 73.256 32.8675C73.537 32.545 73.8543 32.29 74.208 32.1028C74.5722 31.9155 74.9468 31.8218 75.3317 31.8218C75.5086 31.8218 75.6751 31.8375 75.8311 31.8687C75.9976 31.8999 76.1277 31.9363 76.2213 31.9779L75.7999 33.7259C75.6751 33.6738 75.5346 33.6322 75.3785 33.601C75.2329 33.5594 75.0872 33.5386 74.9416 33.5386C74.6606 33.5386 74.3901 33.5958 74.13 33.7103C73.8803 33.8143 73.6566 33.9652 73.4589 34.1628C73.2716 34.3501 73.1208 34.5738 73.0063 34.8339C72.8919 35.0836 72.8347 35.3594 72.8347 35.6611V40.187H71.2116ZM78.8253 40.187V29.9022H80.4328V40.187H78.8253ZM77.1242 33.5542V31.9935H82.3368V33.5542H77.1242ZM87.5479 40.3431C86.7052 40.3431 85.9561 40.1662 85.3006 39.8125C84.6555 39.4483 84.1457 38.9541 83.7711 38.3298C83.407 37.7056 83.2249 36.9876 83.2249 36.1761C83.2249 35.531 83.3289 34.9432 83.537 34.4126C83.7451 33.8819 84.0312 33.4241 84.3954 33.0392C84.77 32.6438 85.2122 32.3421 85.722 32.134C86.2422 31.9155 86.804 31.8062 87.4075 31.8062C87.9381 31.8062 88.4323 31.9103 88.8901 32.1184C89.3479 32.3161 89.7433 32.5918 90.0762 32.9455C90.4196 33.2993 90.6797 33.7207 90.8566 34.2097C91.0438 34.6883 91.1323 35.2137 91.1219 35.7859L91.1063 36.4726H84.411L84.0521 35.1929H89.7173L89.4832 35.4582V35.0836C89.452 34.7403 89.3375 34.4334 89.1398 34.1628C88.9421 33.8923 88.6924 33.679 88.3907 33.523C88.089 33.3669 87.7612 33.2889 87.4075 33.2889C86.8456 33.2889 86.3722 33.3981 85.9873 33.6166C85.6023 33.8247 85.311 34.1368 85.1133 34.553C84.9156 34.9588 84.8168 35.4634 84.8168 36.0669C84.8168 36.6391 84.9364 37.1385 85.1757 37.5651C85.415 37.9813 85.7532 38.3038 86.1902 38.5327C86.6272 38.7616 87.1318 38.8761 87.704 38.8761C88.1098 38.8761 88.4843 38.8084 88.8277 38.6732C89.1814 38.5379 89.5612 38.2934 89.967 37.9397L90.7785 39.0789C90.5288 39.3286 90.2219 39.5471 89.8577 39.7344C89.504 39.9217 89.1242 40.0726 88.7184 40.187C88.3231 40.2911 87.9329 40.3431 87.5479 40.3431ZM96.2867 40.3431C95.5376 40.3431 94.8665 40.161 94.2734 39.7968C93.6908 39.4223 93.2278 38.9177 92.8844 38.283C92.5411 37.6379 92.3694 36.9044 92.3694 36.0825C92.3694 35.2605 92.5359 34.5322 92.8688 33.8975C93.2122 33.2525 93.6752 32.7478 94.2578 32.3837C94.8405 32.0091 95.5012 31.8218 96.2399 31.8218C96.6456 31.8218 97.0358 31.8895 97.4104 32.0247C97.7953 32.1496 98.1387 32.3265 98.4404 32.5554C98.7421 32.7739 98.9762 33.0184 99.1427 33.2889C99.3196 33.549 99.408 33.8143 99.408 34.0848L98.9398 34.116V28.6381H100.547V40.187H98.9398V38.2362H99.252C99.252 38.4859 99.1687 38.7356 99.0022 38.9853C98.8358 39.2246 98.6121 39.4483 98.3312 39.6564C98.0606 39.8645 97.7433 40.0309 97.3792 40.1558C97.0254 40.2807 96.6612 40.3431 96.2867 40.3431ZM96.5052 38.9541C96.9942 38.9541 97.426 38.8292 97.8005 38.5795C98.1751 38.3298 98.4664 37.9917 98.6745 37.5651C98.893 37.1281 99.0022 36.6339 99.0022 36.0825C99.0022 35.531 98.893 35.042 98.6745 34.6154C98.4664 34.1785 98.1751 33.8351 97.8005 33.5854C97.426 33.3357 96.9942 33.2108 96.5052 33.2108C96.0162 33.2108 95.5844 33.3357 95.2098 33.5854C94.8353 33.8351 94.5387 34.1785 94.3203 34.6154C94.1122 35.042 94.0081 35.531 94.0081 36.0825C94.0081 36.6339 94.1122 37.1281 94.3203 37.5651C94.5387 37.9917 94.8353 38.3298 95.2098 38.5795C95.5844 38.8292 96.0162 38.9541 96.5052 38.9541ZM111.972 40.3431C111.213 40.3431 110.516 40.2078 109.881 39.9373C109.246 39.6668 108.695 39.2818 108.227 38.7824C107.759 38.2726 107.394 37.6743 107.134 36.9876C106.885 36.301 106.76 35.5466 106.76 34.7247C106.76 33.9444 106.895 33.2212 107.165 32.5554C107.446 31.8791 107.831 31.286 108.32 30.7762C108.809 30.2664 109.376 29.871 110.022 29.5901C110.667 29.3092 111.364 29.1687 112.113 29.1687C112.643 29.1687 113.158 29.252 113.658 29.4184C114.168 29.5745 114.625 29.7982 115.031 30.0895C115.447 30.3704 115.786 30.693 116.046 31.0571L114.922 32.2276C114.62 31.9259 114.313 31.6762 114.001 31.4785C113.699 31.2704 113.387 31.1143 113.065 31.0103C112.753 30.9063 112.435 30.8542 112.113 30.8542C111.603 30.8542 111.124 30.9531 110.677 31.1508C110.24 31.338 109.855 31.6034 109.522 31.9467C109.2 32.29 108.945 32.701 108.757 33.1796C108.57 33.6478 108.476 34.1628 108.476 34.7247C108.476 35.3177 108.565 35.8588 108.742 36.3478C108.929 36.8264 109.189 37.2374 109.522 37.5807C109.855 37.924 110.25 38.1894 110.708 38.3766C111.176 38.5535 111.691 38.642 112.253 38.642C112.597 38.642 112.935 38.5951 113.268 38.5015C113.601 38.4079 113.913 38.2726 114.204 38.0957C114.495 37.9188 114.761 37.7108 115 37.4715L115.843 38.8448C115.603 39.1258 115.276 39.3807 114.86 39.6096C114.454 39.8385 113.996 40.0205 113.486 40.1558C112.987 40.2807 112.482 40.3431 111.972 40.3431ZM120.598 40.3431C120.016 40.3431 119.506 40.2078 119.069 39.9373C118.642 39.6668 118.309 39.287 118.07 38.798C117.841 38.309 117.727 37.7264 117.727 37.0501V31.9935H119.334V36.6131C119.334 37.0917 119.407 37.5079 119.553 37.8616C119.709 38.205 119.927 38.4703 120.208 38.6576C120.499 38.8448 120.848 38.9385 121.254 38.9385C121.556 38.9385 121.831 38.8917 122.081 38.798C122.331 38.694 122.544 38.5535 122.721 38.3766C122.908 38.1998 123.054 37.9865 123.158 37.7368C123.262 37.4871 123.314 37.2165 123.314 36.9252V31.9935H124.921V40.187H123.314V38.4703L123.595 38.283C123.47 38.668 123.257 39.0165 122.955 39.3286C122.664 39.6408 122.315 39.8905 121.909 40.0778C121.503 40.2546 121.067 40.3431 120.598 40.3431ZM127.176 40.187V31.9935H128.799V34.5686L128.643 33.9444C128.757 33.549 128.95 33.19 129.22 32.8675C129.501 32.545 129.819 32.29 130.173 32.1028C130.537 31.9155 130.911 31.8218 131.296 31.8218C131.473 31.8218 131.64 31.8375 131.796 31.8687C131.962 31.8999 132.092 31.9363 132.186 31.9779L131.764 33.7259C131.64 33.6738 131.499 33.6322 131.343 33.601C131.197 33.5594 131.052 33.5386 130.906 33.5386C130.625 33.5386 130.355 33.5958 130.094 33.7103C129.845 33.8143 129.621 33.9652 129.423 34.1628C129.236 34.3501 129.085 34.5738 128.971 34.8339C128.856 35.0836 128.799 35.3594 128.799 35.6611V40.187H127.176ZM133.471 40.187V31.9935H135.094V34.5686L134.938 33.9444C135.052 33.549 135.244 33.19 135.515 32.8675C135.796 32.545 136.113 32.29 136.467 32.1028C136.831 31.9155 137.206 31.8218 137.591 31.8218C137.768 31.8218 137.934 31.8375 138.09 31.8687C138.257 31.8999 138.387 31.9363 138.48 31.9779L138.059 33.7259C137.934 33.6738 137.794 33.6322 137.637 33.601C137.492 33.5594 137.346 33.5386 137.2 33.5386C136.92 33.5386 136.649 33.5958 136.389 33.7103C136.139 33.8143 135.916 33.9652 135.718 34.1628C135.531 34.3501 135.38 34.5738 135.265 34.8339C135.151 35.0836 135.094 35.3594 135.094 35.6611V40.187H133.471ZM143.238 40.3431C142.395 40.3431 141.646 40.1662 140.991 39.8125C140.346 39.4483 139.836 38.9541 139.461 38.3298C139.097 37.7056 138.915 36.9876 138.915 36.1761C138.915 35.531 139.019 34.9432 139.227 34.4126C139.435 33.8819 139.721 33.4241 140.086 33.0392C140.46 32.6438 140.902 32.3421 141.412 32.134C141.932 31.9155 142.494 31.8062 143.098 31.8062C143.628 31.8062 144.122 31.9103 144.58 32.1184C145.038 32.3161 145.433 32.5918 145.766 32.9455C146.11 33.2993 146.37 33.7207 146.547 34.2097C146.734 34.6883 146.822 35.2137 146.812 35.7859L146.796 36.4726H140.101L139.742 35.1929H145.407L145.173 35.4582V35.0836C145.142 34.7403 145.028 34.4334 144.83 34.1628C144.632 33.8923 144.383 33.679 144.081 33.523C143.779 33.3669 143.451 33.2889 143.098 33.2889C142.536 33.2889 142.062 33.3981 141.677 33.6166C141.292 33.8247 141.001 34.1368 140.803 34.553C140.606 34.9588 140.507 35.4634 140.507 36.0669C140.507 36.6391 140.627 37.1385 140.866 37.5651C141.105 37.9813 141.443 38.3038 141.88 38.5327C142.317 38.7616 142.822 38.8761 143.394 38.8761C143.8 38.8761 144.174 38.8084 144.518 38.6732C144.872 38.5379 145.251 38.2934 145.657 37.9397L146.469 39.0789C146.219 39.3286 145.912 39.5471 145.548 39.7344C145.194 39.9217 144.814 40.0726 144.409 40.187C144.013 40.2911 143.623 40.3431 143.238 40.3431ZM148.559 40.187V31.9935H150.166V33.679L149.886 33.8663C149.99 33.5022 150.192 33.1692 150.494 32.8675C150.796 32.5554 151.155 32.3057 151.571 32.1184C151.987 31.9207 152.414 31.8218 152.851 31.8218C153.475 31.8218 153.995 31.9467 154.411 32.1964C154.828 32.4357 155.14 32.8051 155.348 33.3045C155.556 33.8039 155.66 34.4334 155.66 35.1929V40.187H154.052V35.3021C154.052 34.8339 153.99 34.449 153.865 34.1472C153.74 33.8351 153.548 33.6114 153.288 33.4762C153.028 33.3305 152.705 33.2681 152.32 33.2889C152.008 33.2889 151.722 33.3409 151.462 33.4449C151.202 33.5386 150.973 33.6738 150.775 33.8507C150.588 34.0276 150.437 34.2357 150.323 34.475C150.218 34.7039 150.166 34.9536 150.166 35.2241V40.187H149.371C149.235 40.187 149.1 40.187 148.965 40.187C148.829 40.187 148.694 40.187 148.559 40.187ZM161.321 40.3431C160.561 40.3431 159.88 40.1558 159.276 39.7812C158.683 39.4067 158.21 38.8969 157.856 38.2518C157.513 37.6067 157.341 36.8836 157.341 36.0825C157.341 35.2813 157.513 34.5582 157.856 33.9131C158.21 33.2681 158.683 32.7582 159.276 32.3837C159.88 32.0091 160.561 31.8218 161.321 31.8218C162.049 31.8218 162.71 31.9727 163.303 32.2744C163.906 32.5658 164.364 32.9663 164.676 33.4762L163.787 34.5686C163.62 34.3293 163.407 34.1108 163.147 33.9131C162.887 33.7155 162.611 33.5594 162.32 33.4449C162.028 33.3305 161.748 33.2733 161.477 33.2733C160.978 33.2733 160.53 33.3981 160.135 33.6478C159.75 33.8871 159.443 34.2201 159.214 34.6467C158.985 35.0732 158.871 35.5518 158.871 36.0825C158.871 36.6131 158.99 37.0917 159.23 37.5183C159.469 37.9345 159.786 38.2674 160.182 38.5171C160.577 38.7668 161.014 38.8917 161.493 38.8917C161.774 38.8917 162.044 38.8448 162.304 38.7512C162.575 38.6576 162.835 38.5171 163.084 38.3298C163.334 38.1425 163.568 37.9136 163.787 37.6431L164.676 38.7356C164.343 39.2038 163.865 39.5888 163.241 39.8905C162.627 40.1922 161.987 40.3431 161.321 40.3431ZM167.337 43.7765L168.992 39.9529L169.007 41.2327L164.918 31.9935H166.791L169.351 38.0177C169.403 38.1217 169.465 38.283 169.538 38.5015C169.611 38.7096 169.673 38.9177 169.725 39.1258L169.319 39.2194C169.403 39.0009 169.481 38.7824 169.554 38.5639C169.637 38.3454 169.715 38.1269 169.788 37.9084L171.926 31.9935H173.83L170.459 40.187L169.07 43.7765H167.337Z" fill="white"/>
<rect x="185.91" y="9.10942" width="176.008" height="51.1551" rx="25.5776" fill="#1A1A1A"/>
<rect x="185.91" y="9.10942" width="176.008" height="51.1551" rx="25.5776" stroke="#262626" stroke-width="0.867036"/>
<path fill-rule="evenodd" clip-rule="evenodd" d="M211.487 52.0279C221.064 52.0279 228.828 44.2642 228.828 34.6872C228.828 25.1101 221.064 17.3464 211.487 17.3464C201.91 17.3464 194.146 25.1101 194.146 34.6872C194.146 44.2642 201.91 52.0279 211.487 52.0279Z" fill="#262626"/>
<path fill-rule="evenodd" clip-rule="evenodd" d="M209.968 26.6838C210.92 26.6838 211.869 26.6838 212.821 26.6838C212.765 27.3281 212.706 27.9758 212.653 28.6201C213.763 28.7006 214.845 29.0577 215.818 29.5864C215.398 30.6438 214.975 31.7012 214.551 32.7586C213.732 32.0618 212.653 31.6767 211.578 31.6907C211.309 31.6977 211.029 31.7502 210.805 31.9043C210.658 32.0058 210.549 32.1634 210.517 32.3384C210.493 32.4785 210.5 32.6361 210.577 32.7621C210.665 32.9022 210.819 32.9862 210.973 33.0387C211.288 33.1508 211.627 33.1578 211.957 33.1928C212.73 33.2873 213.508 33.4204 214.239 33.697C214.807 33.914 215.349 34.2397 215.738 34.7158C216.106 35.1535 216.319 35.7067 216.4 36.2739C216.494 36.9287 216.466 37.6079 216.263 38.2452C216.106 38.7563 215.836 39.2325 215.486 39.6352C214.761 40.4755 213.697 40.9797 212.604 41.1092C212.639 41.799 212.681 42.4852 212.72 43.175C211.816 43.175 210.917 43.175 210.017 43.175C210.052 42.4922 210.097 41.8095 210.129 41.1267C209.404 41.1022 208.686 40.9412 208.011 40.6856C207.356 40.437 206.733 40.1078 206.151 39.7227C206.579 38.6233 207.006 37.5239 207.436 36.421C207.923 36.8306 208.441 37.2123 209.008 37.5029C209.618 37.8145 210.293 38.0141 210.98 38.0211C211.305 38.0246 211.641 38.0071 211.95 37.895C212.139 37.825 212.324 37.7024 212.408 37.5099C212.496 37.3068 212.489 37.0512 212.356 36.8691C212.261 36.7466 212.128 36.6626 211.988 36.603C211.799 36.526 211.603 36.484 211.403 36.4525C210.668 36.3334 209.929 36.2354 209.219 36.0043C208.648 35.8187 208.091 35.5596 207.636 35.1605C207.349 34.9119 207.111 34.6073 206.943 34.2642C206.691 33.753 206.596 33.1753 206.603 32.608C206.603 31.9743 206.733 31.3301 207.048 30.7734C207.321 30.2762 207.737 29.87 208.207 29.5584C208.774 29.1838 209.408 28.9282 210.052 28.7216C210.024 28.0423 209.996 27.3631 209.968 26.6838Z" fill="#CAFF33"/>
<path d="M270.352 34.6876C270.352 44.2142 262.629 51.9371 253.102 51.9371C243.576 51.9371 235.853 44.2142 235.853 34.6876C235.853 25.1611 243.576 17.4384 253.102 17.4384C262.629 17.4384 270.352 25.1611 270.352 34.6876Z" fill="#262626"/>
<path d="M257.95 41.8949L257.552 40.0875C257.529 39.9812 257.472 39.9016 257.381 39.8488C257.283 39.7957 257.184 39.7883 257.086 39.8262L257.029 39.8488L256.892 39.8829C256.832 39.8978 256.761 39.915 256.682 39.9339C256.602 39.9529 256.51 39.9717 256.403 39.9908C256.298 40.0097 256.185 40.0269 256.068 40.042C255.951 40.0569 255.824 40.0704 255.687 40.0818C255.551 40.093 255.415 40.0987 255.278 40.0987C254.315 40.0987 253.45 39.8392 252.68 39.3201C251.911 38.8008 251.345 38.0978 250.981 37.2113H255.38C255.464 37.2113 255.539 37.1829 255.607 37.1259C255.676 37.0692 255.718 36.9992 255.732 36.9155L256.005 35.6423C256.028 35.5289 256.005 35.4265 255.937 35.3354C255.861 35.2444 255.766 35.1989 255.653 35.1989H250.435C250.412 34.6835 250.412 34.2857 250.435 34.0052H255.983C256.188 34.0052 256.309 33.9068 256.347 33.7097L256.62 32.4137C256.642 32.3076 256.616 32.2092 256.54 32.1182C256.472 32.0272 256.377 31.9816 256.256 31.9816H250.935C251.314 31.1328 251.883 30.4659 252.641 29.9808C253.399 29.4956 254.255 29.2532 255.21 29.2532C255.24 29.238 255.352 29.2419 255.545 29.2646C255.738 29.2872 255.849 29.2967 255.875 29.2929C255.901 29.2892 256 29.3006 256.17 29.327C256.341 29.3535 256.426 29.3668 256.426 29.3668L256.625 29.4065C256.682 29.418 256.726 29.4273 256.756 29.435L256.802 29.4463C256.9 29.4767 256.991 29.4672 257.074 29.418C257.158 29.3686 257.211 29.2948 257.234 29.1963L257.723 27.3887C257.745 27.2902 257.734 27.1992 257.689 27.1159C257.62 27.0248 257.544 26.968 257.461 26.9453C256.764 26.771 256.028 26.6838 255.255 26.6838C253.558 26.6838 252.04 27.169 250.702 28.139C249.365 29.109 248.442 30.39 247.934 31.9815H246.82C246.714 31.9815 246.627 32.0155 246.559 32.0837C246.491 32.1518 246.456 32.239 246.456 32.3452V33.6412C246.456 33.7473 246.491 33.8345 246.559 33.9025C246.627 33.9708 246.714 34.0048 246.82 34.0048H247.582C247.559 34.3687 247.555 34.7663 247.57 35.1986H246.82C246.722 35.1986 246.636 35.2345 246.564 35.3065C246.492 35.3784 246.456 35.4637 246.456 35.5621V36.8468C246.456 36.9455 246.492 37.0305 246.564 37.1027C246.636 37.1747 246.722 37.2104 246.82 37.2104H247.9C248.378 38.8853 249.28 40.2174 250.606 41.2064C251.932 42.1957 253.482 42.6901 255.255 42.6901C255.4 42.6901 255.545 42.6865 255.693 42.6786C255.841 42.671 255.979 42.6596 256.108 42.6446C256.237 42.6296 256.364 42.6127 256.489 42.5936C256.614 42.5745 256.728 42.5559 256.83 42.5366C256.932 42.5178 257.029 42.4989 257.12 42.4801C257.211 42.4609 257.292 42.4403 257.365 42.4174C257.437 42.395 257.497 42.3778 257.546 42.3666C257.596 42.3552 257.635 42.3417 257.666 42.3268L257.723 42.3154C257.806 42.2851 257.87 42.2301 257.916 42.1504C257.961 42.0712 257.972 41.9858 257.95 41.8949Z" fill="#CAFF33"/>
<path d="M311.543 38.8824C309.227 48.1722 299.818 53.8253 290.527 51.5092C281.24 49.1931 275.587 39.7836 277.903 30.4944C280.218 21.2036 289.627 15.5494 298.915 17.8655C308.206 20.1815 313.859 29.5921 311.543 38.8824H311.543Z" fill="#262626"/>
<path d="M295.565 27.0051L295.047 29.0833C295.394 29.1623 295.742 29.2429 296.081 29.3274L296.595 27.2629L297.886 27.5842L297.358 29.7043C298.987 30.2657 300.18 31.1078 299.946 32.6731H299.945C299.775 33.8185 299.14 34.3734 298.297 34.5686C299.455 35.1719 300.044 36.0968 299.483 37.6995C298.787 39.6895 297.131 39.8572 294.93 39.4407L294.396 41.5813L293.106 41.26L293.632 39.1477C293.298 39.0646 292.956 38.9767 292.604 38.8811L292.075 41.0032L290.786 40.6809L291.32 38.5364C291.019 38.4592 290.712 38.3774 290.4 38.2991L288.72 37.8801L289.361 36.4026C289.361 36.4026 290.312 36.6547 290.299 36.636C290.665 36.7263 290.826 36.4881 290.89 36.3293L291.735 32.9456L291.871 32.9797C291.819 32.9592 291.773 32.9459 291.737 32.9368L292.339 30.5208C292.355 30.2466 292.26 29.9013 291.738 29.7708C291.758 29.7572 290.813 29.5402 290.8 29.5374L291.143 28.1584L292.923 28.6028L292.922 28.6096C293.19 28.6761 293.466 28.74 293.747 28.804L294.275 26.6838L295.565 27.0051ZM293.023 37.3274C293.898 37.545 296.596 38.4107 296.996 36.8079H296.997C297.412 35.1365 294.607 34.704 293.732 34.4856L293.023 37.3274ZM294.055 33.1848C294.784 33.3664 297.031 34.1076 297.395 32.6497C297.774 31.1288 295.427 30.7902 294.698 30.6086L294.055 33.1848Z" fill="#CAFF33"/>
<path d="M353.587 34.6876C353.587 44.2142 345.864 51.9371 336.338 51.9371C326.811 51.9371 319.089 44.2142 319.089 34.6876C319.089 25.1611 326.811 17.4384 336.338 17.4384C345.864 17.4384 353.587 25.1611 353.587 34.6876Z" fill="#262626"/>
<g opacity="0.8">
<path d="M336.282 26.6838L336.176 27.046V37.5542L336.282 37.6605L341.16 34.7773L336.282 26.6838Z" fill="#CAFF33"/>
<path d="M336.283 26.6838L331.405 34.7773L336.283 37.6606V32.5602V26.6838Z" fill="#CAFF33"/>
<path d="M336.282 39.2476L336.222 39.3208V43.0641L336.282 43.2394L341.163 36.3658L336.282 39.2476Z" fill="#CAFF33"/>
<path d="M336.282 43.2395V39.2476L331.405 36.3658L336.282 43.2395Z" fill="#CAFF33"/>
<path d="M336.283 37.6606L341.16 34.7774L336.283 32.5603V37.6606Z" fill="#CAFF33"/>
<path d="M331.405 34.7774L336.282 37.6606V32.5603L331.405 34.7774Z" fill="#CAFF33"/>
</g>
</svg>
